# xmcd
#
# Track frame offsets: 
#        150
#        15050
#        37691
#        58301
#        80441
#        96500
#        116977
#        141238
#        162309
#        183238
#        201550
#        223963
#
# Disc length: 3229 seconds
#
# Revision: 1
# Processed by: cddbd v1.5.1PL2 Copyright (c) Steve Scherf et al.
# Submitted via: ExactAudioCopy v0.95a5
#
DISCID=ad0c9b0c
DTITLE=陆毅鹏 - 越夜越烧 影视歌曲也发烧
DYEAR=2005
DGENRE=Pop
TTITLE0=向天再借五百年 -电视剧《康熙王朝》插曲
TTITLE1=暗香 -电视剧《金粉世家》主题曲
TTITLE2=当爱已成往事 -电影《霸王别姬》插曲
TTITLE3=我需要你 -电视剧《拿什么拯救你我的爱人》主题曲
TTITLE4=深情相拥 -电影《夜半歌声》插曲
TTITLE5=两个人的烟火 -电影《大城小事》主题曲
TTITLE6=想说爱你不容易 -电视剧《过把瘾》插曲
TTITLE7=情深深雨朦朦 -电视剧《情深深雨朦朦》插曲
TTITLE8=是否爱过我 -电视剧《像雾像雨又像风》主题曲
TTITLE9=多久.多少 -电视剧《中国式离婚》主题曲
TTITLE10=幸福相守 -电视剧《玉观音》主题曲
TTITLE11=花样年华 -电影《花样年华》插曲
EXTD=
EXTT0=
EXTT1=
EXTT2=
EXTT3=
EXTT4=
EXTT5=
EXTT6=
EXTT7=
EXTT8=
EXTT9=
EXTT10=
EXTT11=
PLAYORDER=
